<mxfile host="app.diagrams.net" modified="2024-06-10T13:59:57.766Z" agent="Mozilla/5.0 (Windows NT 10.0; Win64; x64) AppleWebKit/537.36 (KHTML, like Gecko) Chrome/125.0.0.0 Safari/537.36" version="24.5.2" etag="3WNvw2iMBVinEsjsunc1" type="github">
  <diagram name="Page-1" id="F7QqF_UIxKD3uWxWTU_q">
    <mxGraphModel>
      <root>
        <mxCell id="0" />
        <mxCell id="1" parent="0" />
      </root>
    </mxGraphModel>
  </diagram>
</mxfile>
